. 
 
http://www.torrenting.com          :     Once & For all ;)


               www . Torrenting . Com 

(((((((((((((= Enjoy No RAR releases =))))))))))))))))))))


...................................NFO:....................................

.House of Wax 2005 DVDRip XviD-GLY 
http://www.imdb.com/title/tt0397065/

General
-----------
Complete name                            : G:House of Wax 2005 DVDRip XviD-GLYHouse.of.Wax.2005.DVDRip.XviD-GLY.avi
Format                                   : AVI
Format/Info                              : Audio Video Interleave
File size                                : 707 MiB
Duration                                 : 1h 48mn
Overall bit rate                         : 915 Kbps

Video
---------
ID                                       : 0
Format                                   : MPEG-4 Visual
Format profile                           : Advanced Simple@L5
Format settings, BVOP                    : 2
Format settings, QPel                    : No
Format settings, GMC                     : No warppoints
Format settings, Matrix                  : Default (H.263)
Codec ID                                 : XVID
Codec ID/Hint                            : XviD
Duration                                 : 1h 48mn
Bit rate                                 : 781 Kbps
Width                                    : 720 pixels
Height                                   : 400 pixels
Display aspect ratio                     : 16:9
Frame rate                               : 25.000 fps
Color space                              : YUV
Chroma subsampling                       : 4:2:0
Bit depth                                : 8 bits
Scan type                                : Progressive
Compression mode                         : Lossy
Bits/(Pixel*Frame)                       : 0.108
Stream size                              : 604 MiB (85%)
Writing library                          : XviD 1.2.1 (UTC 2008-12-04)

Audio
---------
ID                                       : 1
Format                                   : MPEG Audio
Format version                           : Version 1
Format profile                           : Layer 3
Mode                                     : Joint stereo
Mode extension                           : MS Stereo
Codec ID                                 : 55
Codec ID/Hint                            : MP3
Duration                                 : 1h 48mn
Bit rate mode                            : Constant
Bit rate                                 : 128 Kbps
Channel(s)                               : 2 channels
Sampling rate                            : 48.0 KHz
Compression mode                         : Lossy
Stream size                              : 99.0 MiB (14%)
Alignment                                : Aligned on interleaves
Interleave, duration                     : 160 ms (4.00 video frames)
Interleave, preload duration             : 216 ms
Title                                    : VTS_01_1 T80 3_2ch 384Kbps DELAY 0ms
Writing library                          : LAME3.99r
Encoding settings                        : -m j -V 4 -q 2 -lowpass 17 -b 128